# xmcd
#
# Track frame offsets: 
#        150
#        24985
#        46077
#        72330
#        90031
#        109888
#        124649
#        144464
#        162769
#        176081
#        197818
#        205054
#        220336
#        237513
#        249290
#        267915
#        284724
#        297502
#        314058
#        327083
#
# Disc length: 4595 seconds
#
# Revision: 1
# Processed by: cddbd v1.5.2PL0 Copyright (c) Steve Scherf et al.
# Submitted via: ExactAudioCopy v1.3
#
DISCID=2d11f114
DTITLE=Various Artist - 100 Op 1 De Beste Belgen - CD1
DYEAR=2015
DGENRE=Pop-Folk
TTITLE0=Gorki - Mia
TTITLE1=Jan De Wilde - Eerste Sneeuw
TTITLE2=Wim De Craene - Tim
TTITLE3=Bart Peeters - Heist Aan Zee
TTITLE4=Het Zesde Metaal - Ploegsteert
TTITLE5=TC Matic - O La La La
TTITLE6=Raymond Van Het Groenewoud - Meisjes
TTITLE7=Absynthe Minded - Envoi
TTITLE8=The Kids - There Will Be No Next Time
TTITLE9=The Scabs - Hard Times
TTITLE10=Wannes Van De Velde - Ik Wil Deze Nacht In De Straten Verdwal
TTITLE10=en
TTITLE11=Noordkaap - Een Heel Klein Beetje Oorlog
TTITLE12=Sioen - Cruisin'
TTITLE13=Louis Neefs - Laat Ons Een Bloem
TTITLE14=Guido Belcanto and An Pierlé - Toverdrank
TTITLE15=Fixkes - Kvraagetaan
TTITLE16=Ann Christy - Dag Vreemde Man
TTITLE17=The Wolfbanes - As The Bottle Runs Dry
TTITLE18=Adamo - Tombe La Neige
TTITLE19=Oscar and The Wolf - Princes
EXTD=
EXTT0=
EXTT1=
EXTT2=
EXTT3=
EXTT4=
EXTT5=
EXTT6=
EXTT7=
EXTT8=
EXTT9=
EXTT10=
EXTT11=
EXTT12=
EXTT13=
EXTT14=
EXTT15=
EXTT16=
EXTT17=
EXTT18=
EXTT19=
PLAYORDER=
